<?xml version="1.0" encoding="UTF-8" standalone="no"?>
<!DOCTYPE svg PUBLIC "-//W3C//DTD SVG 1.1//EN" "http://www.w3.org/Graphics/SVG/1.1/DTD/svg11.dtd">
<svg xmlns="http://www.w3.org/2000/svg" version="1.1" viewBox="0 0 500 481">
<g stroke-width="2.00" fill="none" stroke-linecap="butt">
<path stroke="#1a5b7c" vector-effect="non-scaling-stroke" d="
  M 149.27 166.32
  L 154.32 164.10"
/>
<path stroke="#1a5b7c" vector-effect="non-scaling-stroke" d="
  M 259.62 164.33
  Q 261.19 168.76 264.96 166.86"
/>
</g>
<path fill="#0083c5" d="
  M 204.79 11.75
  L 217.25 11.79
  L 219.96 12.00
  Q 269.64 15.89 305.19 48.68
  Q 312.56 55.47 318.87 63.25
  Q 345.75 96.31 350.25 139.75
  Q 353.14 167.57 345.70 194.49
  Q 340.22 214.33 328.94 231.22
  Q 323.50 239.35 316.48 246.83
  Q 295.80 268.84 267.32 280.32
  Q 246.17 288.85 226.25 290.75
  Q 219.74 291.37 213.13 287.33
  Q 204.55 282.09 201.53 273.34
  Q 200.00 268.91 200.00 257.99
  Q 200.00 245.38 200.00 232.82
  A 0.92 0.90 -78.0 0 0 199.47 231.99
  Q 188.21 226.81 179.93 218.57
  Q 158.41 197.16 145.61 169.40
  A 1.10 1.10 70.1 0 1 146.32 167.88
  Q 148.41 167.31 149.27 166.32
  L 154.32 164.10
  L 158.20 162.70
  A 0.60 0.56 67.6 0 1 158.90 163.02
  Q 171.59 190.47 193.86 210.89
  Q 198.05 214.73 203.75 217.75
  Q 207.19 219.58 210.47 217.74
  Q 217.10 214.02 222.62 208.93
  Q 226.54 205.32 232.85 198.06
  Q 246.40 182.47 255.01 163.48
  A 1.40 1.36 -63.1 0 1 256.94 162.82
  L 259.62 164.33
  Q 261.19 168.76 264.96 166.86
  L 268.37 168.10
  A 0.90 0.85 -67.2 0 1 268.82 169.30
  Q 257.33 193.83 238.94 213.69
  Q 227.90 225.60 214.88 232.21
  A 0.83 0.82 76.3 0 0 214.44 232.94
  Q 214.39 247.44 214.61 261.95
  Q 214.70 267.74 216.19 270.40
  Q 218.37 274.28 222.83 275.35
  Q 225.51 275.99 230.65 275.22
  Q 256.70 271.33 278.69 258.69
  Q 319.95 234.95 332.25 189.75
  Q 336.18 175.29 336.58 159.00
  Q 336.83 148.99 335.62 139.04
  Q 329.88 91.81 295.46 59.64
  Q 287.95 52.61 279.82 47.23
  Q 255.43 31.07 226.00 27.50
  Q 202.63 24.67 179.45 30.74
  Q 143.06 40.28 117.31 67.56
  Q 85.14 101.66 80.64 149.03
  Q 79.70 158.84 80.23 169.00
  Q 81.83 199.54 94.19 227.78
  Q 108.26 259.93 133.97 283.78
  Q 151.73 300.26 172.94 309.81
  Q 190.30 317.63 210.26 319.62
  Q 240.08 322.59 268.48 313.18
  Q 298.80 303.12 322.28 281.52
  Q 360.54 246.31 375.22 195.47
  A 0.93 0.92 25.1 0 0 374.84 194.43
  Q 360.08 184.95 361.00 168.00
  Q 361.19 164.45 363.19 160.38
  Q 369.73 147.12 382.66 144.98
  Q 392.66 143.33 401.09 148.15
  Q 410.06 153.27 413.19 164.31
  Q 414.49 168.90 413.92 173.87
  Q 413.39 178.46 411.15 182.85
  Q 404.85 195.21 390.23 197.46
  A 0.85 0.84 2.6 0 0 389.55 198.07
  Q 375.36 249.44 338.06 287.06
  Q 300.63 324.82 247.91 333.41
  Q 237.58 335.09 228.02 335.36
  Q 196.70 336.26 168.56 323.94
  Q 139.12 311.04 116.07 286.43
  Q 78.70 246.54 68.62 193.36
  Q 66.71 183.29 66.01 173.55
  Q 61.93 116.82 95.06 71.56
  Q 121.08 36.03 162.75 20.50
  Q 181.40 13.55 200.50 12.21
  L 204.79 11.75
  Z
  M 401.14 170.90
  A 13.65 13.65 0.0 0 0 387.49 157.25
  A 13.65 13.65 0.0 0 0 373.84 170.90
  A 13.65 13.65 0.0 0 0 387.49 184.55
  A 13.65 13.65 0.0 0 0 401.14 170.90
  Z"
/>
<path fill="#333232" d="
  M 154.32 164.10
  L 149.27 166.32
  Q 139.95 146.56 132.50 121.00
  Q 128.52 107.34 128.39 94.75
  Q 128.31 87.75 130.22 84.57
  Q 132.99 79.96 139.41 80.12
  Q 143.04 80.21 143.10 80.20
  Q 153.33 79.98 163.87 80.26
  A 1.58 1.57 -69.8 0 0 165.14 79.67
  Q 167.24 77.01 169.73 75.94
  Q 172.40 74.80 175.32 75.73
  Q 179.20 76.97 180.00 81.25
  Q 181.02 86.67 176.99 89.30
  Q 173.96 91.28 170.60 90.45
  Q 167.29 89.62 165.31 86.37
  A 0.90 0.86 74.0 0 0 164.56 85.93
  L 137.74 85.79
  Q 134.59 85.77 134.25 88.98
  Q 133.26 98.31 134.83 107.38
  Q 135.70 112.40 139.47 125.05
  Q 145.43 145.08 154.32 164.10
  Z"
/>
<path fill="#333232" d="
  M 264.96 166.86
  Q 261.19 168.76 259.62 164.33
  Q 271.23 139.78 277.91 113.48
  Q 279.88 105.72 280.73 97.77
  Q 281.32 92.20 279.30 87.33
  Q 278.64 85.75 276.92 85.75
  L 249.71 85.68
  A 0.84 0.83 13.1 0 0 248.96 86.14
  Q 247.91 88.25 246.08 89.48
  Q 244.37 90.63 242.07 90.73
  Q 237.27 90.95 235.00 86.50
  Q 232.91 82.42 235.02 79.07
  Q 236.92 76.05 240.51 75.47
  Q 245.19 74.71 248.83 79.43
  A 2.13 2.13 71.0 0 0 250.51 80.25
  Q 260.86 80.23 270.71 80.24
  Q 277.98 80.25 278.77 80.43
  Q 283.46 81.47 285.00 86.75
  Q 287.05 93.78 285.73 102.53
  Q 283.80 115.29 279.84 127.57
  Q 273.40 147.57 264.96 166.86
  Z"
/>
<path fill="#d7182a" d="
  M 219.06 129.95
  L 234.63 130.00
  A 0.81 0.79 -0.0 0 1 235.44 130.79
  L 235.49 151.74
  A 0.76 0.75 -0.4 0 1 234.73 152.50
  L 218.92 152.50
  A 0.67 0.67 0.0 0 0 218.25 153.17
  L 218.25 168.90
  A 0.85 0.85 0.0 0 1 217.40 169.75
  L 196.67 169.75
  A 0.67 0.67 0.0 0 1 196.00 169.08
  L 196.00 153.31
  A 0.81 0.81 0.0 0 0 195.19 152.50
  L 179.90 152.50
  A 0.89 0.88 0.0 0 1 179.01 151.62
  L 179.17 130.69
  A 0.52 0.51 -89.4 0 1 179.68 130.18
  L 195.20 130.27
  A 0.79 0.78 0.4 0 0 196.00 129.49
  L 196.00 113.49
  A 0.53 0.52 90.0 0 1 196.52 112.96
  L 217.57 112.92
  A 0.54 0.50 88.8 0 1 218.07 113.44
  L 218.54 129.44
  A 0.53 0.52 0.0 0 0 219.06 129.95
  Z"
/>
<path fill="#dd1929" d="
  M 138.44 443.55
  Q 135.54 441.41 134.94 436.56
  Q 134.43 432.47 134.43 431.50
  Q 134.50 415.63 134.50 399.75
  A 0.73 0.68 81.1 0 1 134.96 399.07
  Q 136.20 398.65 137.46 398.93
  A 0.65 0.62 -83.9 0 1 137.94 399.56
  Q 138.04 416.75 138.01 433.94
  Q 138.00 437.83 139.31 439.75
  Q 142.10 443.82 148.02 441.91
  A 0.86 0.74 -27.9 0 1 148.86 442.10
  Q 149.81 443.17 149.09 444.24
  Q 148.63 444.92 147.54 445.24
  Q 142.65 446.66 138.44 443.55
  Z"
/>
<path fill="#dd1929" d="
  M 189.16 416.83
  Q 193.03 412.90 198.13 412.09
  Q 203.33 411.27 207.42 414.03
  Q 212.74 417.61 212.86 425.25
  Q 212.99 433.72 213.00 442.20
  Q 213.00 444.22 212.98 444.28
  Q 212.59 445.36 210.28 444.84
  A 1.01 1.01 -83.0 0 1 209.49 443.83
  Q 209.64 433.97 209.31 424.94
  Q 209.18 421.27 207.37 418.76
  Q 205.66 416.38 202.26 415.54
  Q 194.70 413.68 189.65 420.89
  Q 188.75 422.18 188.75 423.75
  L 188.75 444.01
  A 0.84 0.79 77.5 0 1 188.31 444.75
  Q 186.88 445.45 185.49 444.70
  A 0.89 0.81 -77.2 0 1 185.06 443.94
  L 185.06 399.82
  A 0.78 0.70 80.9 0 1 185.52 399.11
  Q 186.85 398.61 188.23 399.12
  A 0.76 0.68 -81.4 0 1 188.69 399.82
  L 188.81 416.68
  Q 188.81 417.18 189.16 416.83
  Z"
/>
<path fill="#dd1929" d="
  M 19.81 425.56
  Q 19.71 434.78 19.90 444.00
  Q 19.95 446.12 17.10 445.64
  A 1.32 1.31 -85.4 0 1 16.00 444.34
  L 16.06 401.81
  A 0.84 0.77 78.4 0 1 16.50 401.07
  Q 17.87 400.40 19.25 401.07
  A 0.87 0.75 -79.9 0 1 19.69 401.81
  L 19.92 421.06
  A 0.53 0.51 0.0 0 0 20.44 421.56
  L 46.74 421.68
  A 0.57 0.57 0.5 0 0 47.32 421.11
  Q 47.20 411.47 47.30 402.00
  Q 47.32 400.52 48.54 400.84
  Q 48.97 400.95 49.46 400.83
  Q 50.06 400.69 50.55 400.99
  A 1.05 0.78 -78.5 0 1 50.94 401.82
  Q 51.05 422.44 51.00 443.07
  Q 51.00 443.14 51.06 443.94
  Q 51.21 445.97 48.60 445.71
  A 1.49 1.49 2.8 0 1 47.25 444.23
  L 47.32 425.52
  A 0.52 0.51 90.0 0 0 46.81 425.00
  L 20.31 425.06
  A 0.50 0.50 0.0 0 0 19.81 425.56
  Z"
/>
<path fill="#dd1929" d="
  M 248.31 408.66
  L 248.25 444.69
  A 1.00 0.99 -5.7 0 1 247.45 445.66
  Q 244.80 446.18 244.94 444.17
  Q 245.00 443.41 245.00 443.34
  Q 244.96 422.45 245.06 401.56
  A 0.60 0.49 90.0 0 1 245.55 400.96
  L 247.94 400.96
  A 1.14 0.73 66.2 0 1 248.72 401.48
  L 265.49 426.07
  A 0.65 0.64 -44.8 0 0 266.56 426.07
  L 283.11 401.56
  A 1.34 1.32 -79.5 0 1 283.90 401.01
  Q 286.79 400.28 286.60 402.78
  Q 286.50 404.17 286.50 404.22
  Q 286.50 424.48 286.50 444.74
  A 0.88 0.76 78.9 0 1 286.07 445.50
  Q 284.75 446.18 283.48 445.46
  A 0.91 0.80 -77.5 0 1 283.06 444.69
  L 283.00 408.48
  Q 283.00 407.08 282.23 408.25
  L 266.61 432.13
  A 0.68 0.67 44.4 0 1 265.49 432.14
  L 249.30 408.36
  Q 248.31 406.90 248.31 408.66
  Z"
/>
<path fill="#dd1929" d="
  M 484.64 433.80
  A 0.82 0.81 8.7 0 1 484.06 433.02
  Q 484.10 417.42 483.06 401.57
  A 0.84 0.84 -79.4 0 1 484.25 400.75
  Q 485.35 401.27 486.14 400.91
  A 0.66 0.65 -11.7 0 1 487.06 401.51
  Q 487.02 417.17 486.49 432.51
  Q 486.43 434.35 484.64 433.80
  Z"
/>
<path fill="#dd1929" d="
  M 161.94 412.19
  L 162.06 403.57
  A 0.72 0.70 81.0 0 1 162.54 402.89
  Q 165.57 401.91 165.36 404.89
  Q 165.25 406.50 165.25 406.61
  Q 165.25 409.51 165.25 412.12
  A 0.87 0.87 0.3 0 0 166.11 412.99
  Q 170.49 413.04 174.28 412.95
  Q 174.32 412.95 175.09 412.85
  Q 176.68 412.65 176.13 415.35
  A 0.83 0.81 5.5 0 1 175.32 416.00
  L 165.82 416.05
  A 0.52 0.51 -0.6 0 0 165.31 416.56
  Q 165.23 424.54 165.24 432.53
  Q 165.25 438.20 166.56 440.22
  Q 169.08 444.08 175.72 442.22
  A 0.54 0.53 -15.4 0 1 176.39 442.59
  Q 176.81 444.12 176.24 444.99
  Q 175.80 445.66 174.37 445.86
  Q 166.30 446.99 163.41 441.24
  Q 162.01 438.47 162.01 431.02
  Q 162.02 423.79 161.94 416.55
  A 0.51 0.49 -90.0 0 0 161.45 416.04
  L 157.77 416.00
  A 0.67 0.64 -3.5 0 1 157.12 415.45
  Q 156.66 412.67 158.38 412.83
  Q 159.38 412.92 159.51 412.91
  Q 160.48 412.85 161.44 412.74
  A 0.56 0.55 -2.9 0 0 161.94 412.19
  Z"
/>
<path fill="#dd1929" d="
  M 335.95 417.28
  A 1.61 1.60 -5.3 0 0 334.06 415.72
  Q 330.54 416.35 331.16 413.52
  A 0.70 0.63 -83.6 0 1 331.78 412.97
  L 335.14 412.91
  A 0.88 0.78 -0.7 0 0 336.00 412.13
  L 336.00 403.75
  A 0.70 0.66 82.2 0 1 336.47 403.09
  Q 337.57 402.78 338.69 402.96
  A 0.61 0.60 -85.6 0 1 339.20 403.56
  L 339.24 412.33
  A 0.68 0.64 89.1 0 0 339.89 413.00
  L 349.43 412.84
  A 0.75 0.63 -8.4 0 1 350.13 413.27
  Q 350.52 414.37 350.13 415.48
  A 0.75 0.68 8.7 0 1 349.44 415.94
  L 339.81 416.06
  A 0.50 0.50 0.0 0 0 339.31 416.56
  Q 339.21 424.28 339.24 432.01
  Q 339.24 432.08 339.12 434.48
  Q 339.00 436.90 339.91 439.04
  Q 341.13 441.91 343.80 442.64
  Q 346.46 443.36 349.64 442.08
  A 0.47 0.47 71.4 0 1 350.26 442.39
  Q 350.70 443.96 350.32 444.81
  Q 350.00 445.52 348.49 445.77
  Q 340.47 447.10 337.48 441.42
  Q 336.01 438.60 336.01 431.33
  Q 336.02 423.97 335.95 417.28
  Z"
/>
<path fill="#dd1929" d="
  M 362.43 416.05
  L 359.31 415.95
  A 1.04 0.88 -13.3 0 1 358.50 415.54
  Q 357.81 414.51 358.46 413.41
  A 1.03 0.83 -71.2 0 1 359.24 412.92
  L 362.16 412.94
  A 0.84 0.70 0.0 0 0 363.00 412.24
  L 363.00 403.75
  A 0.88 0.82 77.2 0 1 363.44 402.99
  Q 364.97 402.21 366.31 403.23
  A 1.13 0.82 -75.7 0 1 366.64 404.06
  L 366.54 411.76
  A 1.27 1.22 0.2 0 0 367.82 413.00
  L 376.55 412.95
  A 0.93 0.83 -14.3 0 1 377.34 413.36
  Q 379.01 416.10 375.50 416.05
  Q 371.75 416.00 367.37 416.00
  A 0.87 0.87 0.0 0 0 366.50 416.87
  Q 366.50 425.37 366.50 434.25
  Q 366.51 445.39 376.95 442.22
  A 0.56 0.53 -19.4 0 1 377.63 442.52
  Q 378.62 445.07 376.45 445.65
  Q 375.79 445.82 373.68 445.97
  Q 366.09 446.52 363.74 439.00
  Q 362.68 435.60 362.80 431.99
  Q 363.04 424.28 362.94 416.56
  A 0.52 0.51 0.6 0 0 362.43 416.05
  Z"
/>
<path fill="#dd1929" d="
  M 79.14 442.41
  Q 81.69 441.73 84.06 440.49
  A 0.42 0.39 -21.9 0 1 84.65 440.72
  Q 85.47 443.76 82.19 444.94
  Q 73.69 447.99 66.75 443.00
  Q 60.33 438.38 59.92 429.99
  Q 59.57 422.70 63.70 417.81
  Q 67.53 413.27 73.48 412.12
  Q 80.30 410.80 85.27 416.07
  Q 87.64 418.59 88.78 422.03
  Q 89.86 425.27 90.02 428.95
  A 1.01 1.00 -1.4 0 1 89.01 430.00
  L 64.70 430.00
  A 1.13 1.12 -7.3 0 0 63.61 431.41
  Q 66.03 440.57 73.98 442.51
  Q 76.46 443.12 79.14 442.41
  Z
  M 80.76 426.98
  Q 82.86 427.07 85.43 426.94
  A 0.69 0.68 85.4 0 0 86.08 426.17
  Q 85.28 419.67 80.89 416.73
  Q 77.35 414.36 72.78 415.63
  Q 65.50 417.66 63.58 425.97
  A 0.60 0.60 -81.1 0 0 64.11 426.70
  Q 70.33 427.20 76.11 426.95
  Q 77.86 426.87 80.76 426.98
  Z"
/>
<path fill="#dd1929" d="
  M 122.93 441.31
  Q 122.87 440.40 122.24 441.02
  Q 115.58 447.55 106.97 445.41
  Q 101.02 443.92 99.12 439.05
  Q 97.32 434.41 100.00 430.21
  Q 102.93 425.62 109.51 425.24
  Q 115.59 424.90 122.43 424.80
  A 0.56 0.55 -2.4 0 0 122.98 424.21
  Q 122.51 415.35 113.25 415.00
  Q 108.47 414.82 103.20 417.28
  A 0.74 0.71 -35.5 0 1 102.37 417.16
  Q 100.23 415.04 103.13 413.79
  Q 112.01 409.96 119.94 413.31
  Q 123.27 414.72 124.92 418.10
  Q 125.97 420.26 126.21 424.58
  Q 126.71 433.62 126.47 442.69
  Q 126.43 444.23 125.85 444.77
  Q 125.08 445.48 123.65 444.99
  A 0.79 0.74 8.3 0 1 123.12 444.32
  L 122.93 441.31
  Z
  M 104.67 440.80
  Q 110.55 444.07 116.72 441.37
  Q 124.01 438.18 122.84 428.70
  A 0.75 0.74 87.7 0 0 122.14 428.05
  Q 114.87 427.72 108.80 428.50
  Q 100.89 429.51 102.22 437.35
  Q 102.62 439.66 104.67 440.80
  Z"
/>
<path fill="#dd1929" d="
  M 319.94 440.90
  Q 319.92 440.29 319.51 440.74
  Q 313.22 447.58 303.94 445.56
  Q 297.39 444.14 295.77 438.12
  Q 294.77 434.40 296.51 431.07
  Q 298.41 427.45 302.19 425.96
  Q 304.51 425.05 310.95 425.01
  Q 315.13 424.98 319.31 424.83
  A 0.52 0.50 -1.7 0 0 319.81 424.32
  Q 319.69 415.70 310.74 415.25
  Q 305.56 414.99 300.33 417.27
  A 0.98 0.97 -22.1 0 1 299.02 416.72
  Q 298.12 414.36 299.89 413.86
  Q 300.97 413.56 301.06 413.52
  Q 304.95 412.00 310.25 412.00
  Q 318.00 412.00 321.34 417.37
  Q 322.98 420.00 323.21 425.48
  Q 323.59 434.77 323.33 444.06
  A 0.88 0.77 80.4 0 1 322.87 444.80
  Q 321.72 445.33 320.52 444.89
  A 0.78 0.72 -81.3 0 1 320.05 444.19
  L 319.94 440.90
  Z
  M 303.95 441.91
  Q 306.37 442.78 309.06 442.55
  Q 321.27 441.50 319.96 428.59
  A 0.61 0.60 -1.1 0 0 319.39 428.05
  Q 311.85 427.64 305.12 428.74
  Q 302.75 429.12 301.67 429.86
  Q 300.07 430.94 299.41 432.93
  Q 298.26 436.43 299.96 438.98
  Q 301.26 440.94 303.95 441.91
  Z"
/>
<path fill="#dd1929" d="
  M 390.11 430.56
  Q 390.90 437.73 396.56 441.00
  Q 399.92 442.95 403.34 442.77
  Q 406.86 442.58 410.28 440.29
  A 0.33 0.33 68.1 0 1 410.79 440.51
  Q 411.38 443.94 409.41 444.61
  Q 395.04 449.51 388.06 436.94
  Q 384.15 429.89 387.80 421.99
  Q 392.04 412.81 401.39 412.00
  Q 405.39 411.65 408.71 413.73
  Q 416.30 418.49 416.51 428.94
  A 1.05 1.04 -0.5 0 1 415.46 430.00
  L 390.56 430.06
  A 0.45 0.45 -3.4 0 0 390.11 430.56
  Z
  M 390.57 426.82
  L 412.20 426.98
  A 0.48 0.48 85.8 0 0 412.67 426.43
  Q 411.77 420.09 407.88 417.10
  Q 403.98 414.09 398.70 415.83
  Q 391.95 418.05 389.99 426.05
  A 0.62 0.61 -82.5 0 0 390.57 426.82
  Z"
/>
<path fill="#dd1929" d="
  M 454.58 427.20
  Q 452.82 425.85 451.92 423.93
  Q 451.04 422.08 451.39 419.94
  Q 452.07 415.86 455.90 413.63
  Q 459.58 411.49 463.81 412.18
  Q 468.46 412.95 472.51 415.30
  A 1.27 1.05 13.2 0 1 473.07 416.04
  Q 473.42 417.74 471.73 418.16
  A 1.33 1.02 48.1 0 1 470.82 417.99
  Q 465.14 414.61 459.25 415.75
  Q 457.49 416.09 456.21 417.59
  Q 454.99 419.02 454.94 420.68
  Q 454.90 422.39 456.08 423.60
  Q 456.80 424.33 458.64 425.04
  Q 461.98 426.32 465.33 427.57
  Q 465.40 427.59 467.71 428.31
  Q 471.04 429.35 472.89 432.02
  Q 474.59 434.48 474.05 437.79
  Q 472.75 445.81 463.00 445.75
  Q 455.77 445.70 450.65 442.05
  A 0.96 0.92 20.7 0 1 450.26 441.24
  Q 450.41 439.19 452.19 439.06
  A 1.56 1.06 52.6 0 1 453.09 439.36
  Q 459.64 443.98 466.50 442.25
  Q 470.51 441.24 470.80 437.21
  Q 470.96 435.15 469.62 433.65
  Q 468.28 432.16 466.29 431.39
  Q 463.20 430.19 459.93 429.57
  Q 456.96 429.01 454.58 427.20
  Z"
/>
<path fill="#dd1929" d="
  M 429.26 419.83
  Q 433.25 413.54 440.76 412.61
  Q 442.57 412.39 441.80 415.25
  A 0.94 0.91 -88.1 0 1 441.12 415.91
  Q 432.52 417.95 429.83 425.08
  Q 428.75 427.93 428.75 434.55
  Q 428.75 439.21 428.75 444.16
  A 1.55 1.55 -3.6 0 1 427.39 445.70
  Q 425.41 445.95 425.05 444.77
  Q 425.00 444.61 425.00 442.73
  Q 424.96 428.27 425.06 413.82
  A 0.80 0.71 80.3 0 1 425.51 413.10
  Q 426.94 412.52 428.33 413.25
  A 0.94 0.67 -82.0 0 1 428.72 414.00
  L 428.93 419.75
  Q 428.95 420.31 429.26 419.83
  Z"
/>
<rect fill="#dd1929" x="-2.24" y="-2.80" transform="translate(485.25,442.71) rotate(0.7)" width="4.48" height="5.60" rx="0.65"/>
</svg>
